<?xml version="1.0" standalone="no"?>
<!DOCTYPE svg PUBLIC "-//W3C//DTD SVG 20010904//EN"
 "http://www.w3.org/TR/2001/REC-SVG-20010904/DTD/svg10.dtd">
<svg version="1.0" xmlns="http://www.w3.org/2000/svg"
 width="500.000000pt" height="500.000000pt" viewBox="0 0 500.000000 500.000000"
 preserveAspectRatio="xMidYMid meet">

<g transform="translate(0.000000,500.000000) scale(0.100000,-0.100000)"
fill="#000000" stroke="none">
<path d="M2293 3975 c-117 -21 -298 -97 -403 -168 -61 -42 -194 -168 -252
-239 -119 -146 -243 -453 -209 -517 13 -24 71 -30 89 -8 5 6 18 49 28 95 l19
82 88 0 c77 0 88 2 83 16 -3 9 -6 24 -6 35 0 17 -8 19 -65 19 -36 0 -65 3 -65
7 0 18 77 138 135 211 156 194 364 322 580 358 115 18 267 14 380 -10 161 -35
393 -184 509 -325 l58 -71 64 0 c35 0 64 3 64 6 0 4 -22 37 -50 74 -61 83
-196 213 -275 267 -116 77 -299 152 -425 172 -87 14 -258 12 -347 -4z"/>
<path d="M2345 3747 c-118 -45 -190 -111 -243 -224 -25 -53 -27 -68 -27 -173
0 -95 4 -123 21 -160 29 -61 98 -151 129 -168 24 -12 25 -17 25 -100 0 -146
-23 -132 231 -132 l219 0 0 103 0 103 53 46 c118 101 165 273 118 425 -41 133
-105 207 -231 267 -89 42 -206 47 -295 13z m280 -96 c70 -35 121 -87 157 -160
19 -38 23 -62 23 -146 0 -90 -3 -104 -26 -145 -30 -51 -104 -127 -131 -136
-16 -5 -18 -17 -18 -100 l0 -94 -60 0 -60 0 0 163 0 162 56 58 c31 31 60 57
65 57 19 0 32 46 20 69 -21 38 -52 25 -111 -44 -30 -36 -57 -65 -60 -65 -9 0
-74 72 -93 103 -28 43 -87 29 -87 -21 0 -6 32 -41 70 -79 l70 -69 0 -167 0
-167 -55 0 -55 0 0 89 0 89 -48 36 c-147 108 -176 317 -66 478 83 120 264 160
409 89z"/>
<path d="M1798 3341 c-29 -26 -33 -35 -33 -81 0 -46 4 -55 34 -82 30 -27 39
-30 79 -25 65 7 97 42 97 108 0 45 -4 54 -33 80 -24 22 -42 29 -72 29 -30 0
-48 -7 -72 -29z"/>
<path d="M3197 3363 c-4 -3 -7 -19 -7 -34 0 -22 -7 -32 -32 -45 -18 -9 -40
-23 -50 -31 -14 -13 -20 -13 -46 1 l-30 16 -26 -43 -25 -42 25 -18 c18 -14 24
-28 24 -58 0 -33 -4 -41 -30 -54 l-30 -16 25 -49 c28 -55 28 -55 56 -39 17 9
25 6 47 -16 15 -15 39 -33 54 -41 17 -9 28 -23 30 -41 3 -27 6 -28 66 -31 l62
-3 0 30 c0 23 7 34 29 45 16 9 42 27 59 41 18 15 33 21 37 15 15 -24 42 -8 63
35 12 25 22 48 22 50 0 2 -13 11 -30 20 -24 13 -30 22 -30 50 0 26 7 38 30 55
28 20 29 23 16 48 -8 15 -21 35 -29 46 -13 18 -15 18 -39 2 -25 -16 -27 -16
-77 15 -41 26 -51 37 -51 59 0 16 -7 30 -16 34 -21 8 -89 8 -97 -1z m113 -151
c126 -63 93 -240 -48 -259 -75 -10 -152 56 -152 130 0 111 103 178 200 129z"/>
<path d="M3220 3173 c-46 -18 -73 -81 -51 -122 20 -36 67 -54 107 -41 40 13
54 35 54 83 0 52 -63 98 -110 80z"/>
<path d="M1700 3090 c-16 -30 4 -60 40 -60 33 0 47 27 30 60 -14 26 -56 26
-70 0z"/>
<path d="M1428 2933 c-36 -10 -19 -256 29 -408 76 -243 239 -457 452 -596 161
-105 286 -152 444 -165 l83 -6 -3 288 c-2 159 -6 303 -9 321 -6 41 -48 92 -91
109 -18 8 -59 14 -92 14 l-60 0 -3 174 c-3 194 -8 209 -79 251 -32 19 -54 20
-344 22 -170 1 -318 -1 -327 -4z m656 -94 l26 -20 0 -200 0 -199 99 0 c84 0
102 -3 125 -21 l26 -20 0 -256 0 -255 -37 6 c-21 4 -53 12 -70 17 l-33 11 0
89 c0 49 -4 89 -8 89 -4 0 -25 -15 -45 -34 -30 -27 -37 -41 -37 -70 0 -20 -2
-36 -4 -36 -14 0 -127 56 -153 76 l-33 25 0 150 0 149 -33 0 c-46 0 -57 -15
-58 -84 0 -34 -3 -79 -7 -100 l-7 -39 -49 54 c-161 180 -246 374 -263 602 l-6
87 270 0 c258 0 271 -1 297 -21z"/>
<path d="M1810 2755 c0 -32 -25 -43 -49 -21 -16 15 -19 14 -46 -14 -26 -27
-27 -32 -15 -54 17 -33 7 -56 -25 -56 -23 0 -25 -4 -25 -40 0 -36 3 -40 25
-40 33 0 49 -29 28 -52 -14 -16 -14 -20 1 -43 23 -34 43 -41 65 -21 20 18 41
5 41 -26 0 -15 8 -18 45 -18 38 0 45 3 45 20 0 29 31 42 53 23 16 -15 20 -14
47 12 28 26 29 30 14 46 -22 25 -10 59 22 59 21 0 24 4 24 40 0 36 -3 40 -24
40 -32 0 -45 35 -22 58 15 15 13 19 -16 49 -29 30 -33 32 -49 17 -24 -22 -49
-11 -49 21 0 23 -4 25 -45 25 -41 0 -45 -2 -45 -25z m78 -141 c40 -28 19 -94
-30 -94 -29 0 -58 28 -58 56 0 22 33 54 55 54 6 0 21 -7 33 -16z"/>
<path d="M2112 2314 c-39 -20 -62 -60 -62 -107 0 -96 131 -141 194 -67 34 41
39 61 24 105 -23 68 -95 100 -156 69z"/>
<path d="M2911 2866 c-7 -8 -24 -17 -39 -21 -32 -7 -52 -22 -75 -55 -14 -20
-17 -49 -17 -162 l0 -138 -59 0 c-67 0 -111 -23 -148 -79 -22 -33 -23 -41 -23
-266 0 -128 -3 -266 -6 -308 l-7 -77 41 0 c96 0 250 43 372 105 313 158 544
473 601 822 10 63 10 75 -5 98 -18 28 -52 33 -80 12 -13 -9 -20 -35 -27 -91
-20 -185 -133 -407 -278 -551 l-61 -59 0 180 0 181 -40 0 -40 0 0 -214 0 -214
-37 -22 c-21 -12 -59 -32 -85 -44 l-48 -22 0 38 c0 33 -7 45 -42 77 l-43 39
-3 -97 -3 -96 -52 -12 c-29 -6 -60 -14 -69 -17 -17 -4 -18 13 -18 251 l0 255
29 20 c24 17 44 21 110 21 l81 0 0 160 c0 157 1 161 25 185 19 20 34 25 73 25
50 0 72 12 72 40 0 41 -74 67 -99 36z"/>
<path d="M2260 2706 c0 -18 7 -39 15 -46 8 -7 15 -19 15 -28 0 -26 49 -81 90
-102 51 -26 140 -26 196 -1 42 19 84 67 84 95 0 9 9 24 20 33 12 11 20 30 20
50 l0 33 -220 0 -220 0 0 -34z m330 -63 c0 -39 -29 -53 -112 -53 -65 0 -81 3
-98 20 -11 11 -20 27 -20 35 0 12 19 15 115 15 101 0 115 -2 115 -17z"/>
<path d="M3001 2696 c-32 -18 -50 -53 -51 -99 0 -54 52 -107 105 -107 88 0
139 77 106 159 -23 55 -103 78 -160 47z"/>
<path d="M2785 2316 c-41 -18 -65 -47 -71 -88 -16 -93 89 -160 172 -109 81 49
65 165 -29 200 -35 13 -35 13 -72 -3z"/>
<path d="M812 1328 l3 -183 40 0 40 0 0 180 0 180 -43 3 -42 3 2 -183z"/>
<path d="M970 1325 l0 -185 40 0 39 0 3 113 3 112 79 -112 c74 -106 81 -113
112 -113 l34 0 0 185 0 185 -35 0 -34 0 -3 -117 -3 -118 -87 118 c-78 104 -91
117 -118 117 l-30 0 0 -185z"/>
<path d="M1360 1324 l0 -185 38 3 37 3 5 106 5 106 76 -106 c66 -93 79 -106
107 -109 l32 -3 0 185 0 186 -41 0 -41 0 4 -110 c3 -109 0 -127 -18 -92 -5 9
-40 59 -78 110 -59 78 -73 92 -97 92 l-29 0 0 -186z"/>
<path d="M1814 1493 c-35 -17 -80 -80 -89 -125 -16 -71 27 -180 83 -210 14 -7
55 -13 91 -13 80 0 118 23 150 88 43 90 19 201 -56 252 -44 30 -128 34 -179 8z
m150 -95 c25 -28 28 -36 23 -81 -5 -61 -39 -97 -90 -97 -106 1 -132 163 -34
205 41 18 65 11 101 -27z"/>
<path d="M2112 1433 c17 -43 47 -125 68 -183 l37 -105 38 0 38 0 44 110 c24
61 52 135 62 165 10 30 22 63 26 73 6 14 1 17 -33 17 l-40 0 -36 -92 c-60
-154 -57 -152 -94 -61 -18 43 -37 95 -43 116 -10 36 -12 37 -54 37 l-43 0 30
-77z"/>
<path d="M2515 1458 c-10 -29 -40 -109 -67 -177 -26 -68 -48 -128 -48 -133 0
-4 18 -8 39 -8 34 0 40 4 50 30 10 29 12 30 73 30 61 0 64 -1 75 -30 10 -27
16 -30 52 -30 l41 0 -36 98 c-20 53 -50 136 -67 184 -31 84 -33 88 -63 88 -27
0 -32 -5 -49 -52z m64 -176 c-43 -7 -48 0 -31 43 l16 39 17 -39 c18 -39 18
-40 -2 -43z"/>
<path d="M2730 1480 c0 -29 1 -30 50 -30 l49 0 3 -152 3 -153 28 -3 27 -3 0
155 0 156 55 0 c54 0 55 0 55 30 l0 30 -135 0 -135 0 0 -30z"/>
<path d="M3082 1328 l3 -183 128 -3 127 -3 0 31 0 30 -100 0 -100 0 0 50 0 50
80 0 c78 0 80 1 80 25 0 23 -3 24 -77 27 l-78 3 -3 48 -3 47 100 0 101 0 0 30
0 30 -130 0 -130 0 2 -182z"/>
<path d="M3510 1503 c-37 -14 -74 -49 -91 -87 -38 -83 -13 -200 50 -246 55
-39 155 -38 205 1 l26 21 -22 18 c-20 16 -25 16 -43 4 -33 -23 -99 -18 -134
11 -62 53 -63 141 -3 199 35 33 97 38 139 11 25 -17 27 -17 40 1 19 26 17 32
-19 54 -32 19 -112 26 -148 13z"/>
<path d="M3772 1328 l3 -183 28 -3 27 -3 0 80 0 81 90 0 90 0 0 -80 c0 -79 0
-80 25 -80 l25 0 0 185 0 185 -25 0 c-24 0 -25 -2 -25 -75 l0 -75 -90 0 -90 0
0 75 0 75 -30 0 -30 0 2 -182z"/>
</g>
</svg>
